# xmcd
#
# Track frame offsets:
#	150
#	9647
#	27705
#	45465
#	59942
#	78945
#	89772
#	99247
#	110927
#	124785
#	137327
#	151955
#	164585
#	178360
#	191322
#	206540
#	222667
#	236827
#	246175
#	265817
#	281167
#	299190
#
# Disc length: 4167 seconds
#
# Revision: 0
# Processed by: cddbd v1.5.2PL0 Copyright (c) Steve Scherf et al.
# Submitted via: audiograbber 1.83.01
#
DISCID=5f104516
DTITLE=The Small Faces - The Immediate Years [CD 4)
DYEAR=1995
DGENRE=Rock
TTITLE0=Call It Something Nice
TTITLE1=The Autumn Stone
TTITLE2=Every Little Bit Hurts [studio version] [mono]
TTITLE3=Collibosher
TTITLE4=Red Balloon
TTITLE5=Don't Burst My Bubble [mono]
TTITLE6=(Tell Me) Have You Ever Seen Me [version 3]
TTITLE7=Green Circles [version 2] [mono]
TTITLE8=Picaninny [mono]
TTITLE9=The Pig Trotters
TTITLE10=The War Of The Worlds
TTITLE11=Wide-Eyed Girl On The Wall
TTITLE12=Tin Soldier [instrumental version]
TTITLE13=Green Circles [USA mix]
TTITLE14=Wham Bam, Thank You Mam [guide vocal]
TTITLE15=Collibosher [alternate mix]
TTITLE16=Donkey Rides, A Penny, A Glass [alternate mix with Experimental Brass 
TTITLE16=Overdubs]
TTITLE17=The Hungry Intruder [instrumental version]
TTITLE18=Red Balloon [alternate mix]
TTITLE19=Tin Soldier [half instrumental, half vocal mix] [mono]
TTITLE20=The Autumn Stone [alternate mix]
TTITLE21=Wide-Eyed Girl On The Wall [alternate mix]
EXTD=
EXTT0=
EXTT1=
EXTT2=
EXTT3=
EXTT4=
EXTT5=
EXTT6=
EXTT7=
EXTT8=
EXTT9=
EXTT10=
EXTT11=
EXTT12=
EXTT13=
EXTT14=
EXTT15=
EXTT16=
EXTT17=
EXTT18=
EXTT19=
EXTT20=
EXTT21=
PLAYORDER=
